<svg id="visual" viewBox="0 0 900 600" width="900" height="600" xmlns="http://www.w3.org/2000/svg" xmlns:xlink="http://www.w3.org/1999/xlink" version="1.1"><g stroke-width="1" stroke-linejoin="bevel"><path d="M473 323L406 398L524 428Z" fill="#1d4e6b" stroke="#1d4e6b"></path><path d="M406 398L462 465L524 428Z" fill="#112e42" stroke="#112e42"></path><path d="M560 497L583 407L524 428Z" fill="#1d4e6b" stroke="#1d4e6b"></path><path d="M524 428L583 407L473 323Z" fill="#15384f" stroke="#15384f"></path><path d="M406 398L407 499L462 465Z" fill="#00101c" stroke="#00101c"></path><path d="M462 465L560 497L524 428Z" fill="#1d4e6b" stroke="#1d4e6b"></path><path d="M530 600L560 497L462 465Z" fill="#00101c" stroke="#00101c"></path><path d="M473 323L386 260L406 398Z" fill="#15384f" stroke="#15384f"></path><path d="M406 398L303 525L407 499Z" fill="#0c2435" stroke="#0c2435"></path><path d="M583 407L594 286L473 323Z" fill="#15384f" stroke="#15384f"></path><path d="M473 323L401 238L386 260Z" fill="#00101c" stroke="#00101c"></path><path d="M533 232L401 238L473 323Z" fill="#246688" stroke="#246688"></path><path d="M594 286L533 232L473 323Z" fill="#1d4e6b" stroke="#1d4e6b"></path><path d="M325 221L296 331L386 260Z" fill="#15384f" stroke="#15384f"></path><path d="M386 260L296 331L406 398Z" fill="#00101c" stroke="#00101c"></path><path d="M296 331L261 410L406 398Z" fill="#00101c" stroke="#00101c"></path><path d="M303 525L429 600L407 499Z" fill="#297ea6" stroke="#297ea6"></path><path d="M407 499L429 600L462 465Z" fill="#081a28" stroke="#081a28"></path><path d="M261 410L303 525L406 398Z" fill="#246688" stroke="#246688"></path><path d="M429 600L530 600L462 465Z" fill="#15384f" stroke="#15384f"></path><path d="M413 114L325 221L401 238Z" fill="#15384f" stroke="#15384f"></path><path d="M401 238L325 221L386 260Z" fill="#15384f" stroke="#15384f"></path><path d="M296 331L233 391L261 410Z" fill="#246688" stroke="#246688"></path><path d="M699 272L639 221L594 286Z" fill="#112e42" stroke="#112e42"></path><path d="M594 286L639 221L533 232Z" fill="#19435d" stroke="#19435d"></path><path d="M533 232L506 133L401 238Z" fill="#15384f" stroke="#15384f"></path><path d="M716 374L594 286L583 407Z" fill="#19435d" stroke="#19435d"></path><path d="M232 295L233 391L296 331Z" fill="#15384f" stroke="#15384f"></path><path d="M261 410L194 521L303 525Z" fill="#277297" stroke="#277297"></path><path d="M694 498L583 407L560 497Z" fill="#1d4e6b" stroke="#1d4e6b"></path><path d="M694 498L716 374L583 407Z" fill="#297ea6" stroke="#297ea6"></path><path d="M613 600L694 498L560 497Z" fill="#205a7a" stroke="#205a7a"></path><path d="M530 600L613 600L560 497Z" fill="#1d4e6b" stroke="#1d4e6b"></path><path d="M716 374L699 272L594 286Z" fill="#277297" stroke="#277297"></path><path d="M325 221L232 295L296 331Z" fill="#205a7a" stroke="#205a7a"></path><path d="M577 107L506 133L533 232Z" fill="#112e42" stroke="#112e42"></path><path d="M303 525L288 600L429 600Z" fill="#19435d" stroke="#19435d"></path><path d="M194 521L288 600L303 525Z" fill="#15384f" stroke="#15384f"></path><path d="M506 133L413 114L401 238Z" fill="#081a28" stroke="#081a28"></path><path d="M325 221L192 223L232 295Z" fill="#205a7a" stroke="#205a7a"></path><path d="M694 498L766 392L716 374Z" fill="#00101c" stroke="#00101c"></path><path d="M716 374L816 262L699 272Z" fill="#112e42" stroke="#112e42"></path><path d="M639 221L577 107L533 232Z" fill="#081a28" stroke="#081a28"></path><path d="M506 133L433 0L413 114Z" fill="#081a28" stroke="#081a28"></path><path d="M664 114L577 107L639 221Z" fill="#15384f" stroke="#15384f"></path><path d="M104 512L194 521L233 391Z" fill="#1d4e6b" stroke="#1d4e6b"></path><path d="M233 391L194 521L261 410Z" fill="#00101c" stroke="#00101c"></path><path d="M816 262L732 199L699 272Z" fill="#205a7a" stroke="#205a7a"></path><path d="M699 272L732 199L639 221Z" fill="#277297" stroke="#277297"></path><path d="M316 62L192 223L325 221Z" fill="#112e42" stroke="#112e42"></path><path d="M232 295L130 288L233 391Z" fill="#081a28" stroke="#081a28"></path><path d="M731 600L789 490L694 498Z" fill="#205a7a" stroke="#205a7a"></path><path d="M694 498L789 490L766 392Z" fill="#205a7a" stroke="#205a7a"></path><path d="M766 392L816 262L716 374Z" fill="#0c2435" stroke="#0c2435"></path><path d="M613 600L731 600L694 498Z" fill="#246688" stroke="#246688"></path><path d="M732 199L664 114L639 221Z" fill="#00101c" stroke="#00101c"></path><path d="M192 223L130 288L232 295Z" fill="#246688" stroke="#246688"></path><path d="M130 600L180 600L194 521Z" fill="#19435d" stroke="#19435d"></path><path d="M194 521L180 600L288 600Z" fill="#112e42" stroke="#112e42"></path><path d="M433 0L316 62L413 114Z" fill="#1d4e6b" stroke="#1d4e6b"></path><path d="M413 114L316 62L325 221Z" fill="#246688" stroke="#246688"></path><path d="M192 223L82 211L130 288Z" fill="#205a7a" stroke="#205a7a"></path><path d="M433 0L506 133L511 0Z" fill="#246688" stroke="#246688"></path><path d="M765 0L669 0L664 114Z" fill="#00101c" stroke="#00101c"></path><path d="M900 405L816 262L766 392Z" fill="#205a7a" stroke="#205a7a"></path><path d="M71 394L104 512L233 391Z" fill="#277297" stroke="#277297"></path><path d="M511 0L506 133L577 107Z" fill="#246688" stroke="#246688"></path><path d="M562 0L511 0L577 107Z" fill="#1d4e6b" stroke="#1d4e6b"></path><path d="M816 262L827 222L732 199Z" fill="#00101c" stroke="#00101c"></path><path d="M669 0L562 0L577 107Z" fill="#00101c" stroke="#00101c"></path><path d="M900 269L827 222L816 262Z" fill="#1d4e6b" stroke="#1d4e6b"></path><path d="M669 0L577 107L664 114Z" fill="#15384f" stroke="#15384f"></path><path d="M130 288L71 394L233 391Z" fill="#205a7a" stroke="#205a7a"></path><path d="M104 512L130 600L194 521Z" fill="#0c2435" stroke="#0c2435"></path><path d="M731 600L819 600L789 490Z" fill="#112e42" stroke="#112e42"></path><path d="M789 490L900 405L766 392Z" fill="#15384f" stroke="#15384f"></path><path d="M113 132L82 211L192 223Z" fill="#112e42" stroke="#112e42"></path><path d="M130 288L0 273L71 394Z" fill="#0c2435" stroke="#0c2435"></path><path d="M900 513L900 405L789 490Z" fill="#112e42" stroke="#112e42"></path><path d="M433 0L288 0L316 62Z" fill="#205a7a" stroke="#205a7a"></path><path d="M316 62L167 71L192 223Z" fill="#00101c" stroke="#00101c"></path><path d="M823 61L664 114L732 199Z" fill="#0c2435" stroke="#0c2435"></path><path d="M288 0L167 71L316 62Z" fill="#19435d" stroke="#19435d"></path><path d="M167 71L113 132L192 223Z" fill="#205a7a" stroke="#205a7a"></path><path d="M900 405L900 269L816 262Z" fill="#277297" stroke="#277297"></path><path d="M827 222L823 61L732 199Z" fill="#19435d" stroke="#19435d"></path><path d="M819 600L900 513L789 490Z" fill="#081a28" stroke="#081a28"></path><path d="M900 269L900 218L827 222Z" fill="#0c2435" stroke="#0c2435"></path><path d="M71 394L0 430L104 512Z" fill="#15384f" stroke="#15384f"></path><path d="M104 512L0 600L130 600Z" fill="#112e42" stroke="#112e42"></path><path d="M0 273L0 430L71 394Z" fill="#1d4e6b" stroke="#1d4e6b"></path><path d="M819 600L900 600L900 513Z" fill="#081a28" stroke="#081a28"></path><path d="M900 70L823 61L827 222Z" fill="#246688" stroke="#246688"></path><path d="M0 214L0 273L82 211Z" fill="#1d4e6b" stroke="#1d4e6b"></path><path d="M82 211L0 273L130 288Z" fill="#112e42" stroke="#112e42"></path><path d="M823 61L765 0L664 114Z" fill="#081a28" stroke="#081a28"></path><path d="M288 0L171 0L167 71Z" fill="#081a28" stroke="#081a28"></path><path d="M167 71L98 0L113 132Z" fill="#00101c" stroke="#00101c"></path><path d="M113 132L0 214L82 211Z" fill="#19435d" stroke="#19435d"></path><path d="M0 430L0 532L104 512Z" fill="#15384f" stroke="#15384f"></path><path d="M0 78L0 214L113 132Z" fill="#19435d" stroke="#19435d"></path><path d="M0 532L0 600L104 512Z" fill="#246688" stroke="#246688"></path><path d="M900 218L900 70L827 222Z" fill="#205a7a" stroke="#205a7a"></path><path d="M823 61L900 0L765 0Z" fill="#297ea6" stroke="#297ea6"></path><path d="M171 0L98 0L167 71Z" fill="#112e42" stroke="#112e42"></path><path d="M98 0L0 78L113 132Z" fill="#297ea6" stroke="#297ea6"></path><path d="M900 70L900 0L823 61Z" fill="#1d4e6b" stroke="#1d4e6b"></path><path d="M98 0L0 0L0 78Z" fill="#1d4e6b" stroke="#1d4e6b"></path></g></svg>